PathFileType	4	(X/Y/Z)	C:\Users\Public\Documents\Vicon Data\AADs Machine\Fixing_spring_distance_56\90_lb_Spring\90_lb_Static.trc
DataRate	CameraRate	NumFrames	NumMarkers	Units	OrigDataRate	OrigDataStartFrame	OrigNumFrames
100.0	100.0	30	8	mm	100.0	158	314	
Frame#	Time	SpringTop			MMAL			LMAL			Shank			Heel			Foot			Toe			MP5			
		X1	Y1	Z1	X2	Y2	Z2	X3	Y3	Z3	X4	Y4	Z4	X5	Y5	Z5	X6	Y6	Z6	X7	Y7	Z7	X8	Y8	Z8	
158	1.57	-357.60165	144.28972	-610.61621	-289.35211	102.33479	-674.1452	-273.18378	111.48586	-552.86011	-221.24304	275.91687	-628.50177	-357.09381	85.170135	-608.37714	-178.79987	57.450256	-614.45679	-105.65265	38.69738	-630.34717	-165.35904	40.529137	-562.34406
159	1.58	-357.62265	144.27069	-610.625	-289.40189	102.13181	-674.02069	-273.20654	111.46703	-552.83215	-221.25587	275.88657	-628.4798	-357.17346	85.170273	-608.45544	-178.81154	57.421326	-614.47595	-105.68625	38.637878	-630.36609	-165.34563	40.466614	-562.36517
160	1.59	-357.61221	144.30605	-610.60358	-289.39914	102.3144	-674.12256	-273.19583	111.47528	-552.82001	-221.25108	275.90341	-628.41095	-357.15179	85.177124	-608.47327	-178.81866	57.433781	-614.46698	-105.64567	38.698811	-630.36462	-165.37701	40.495735	-562.36493
161	1.6	-357.60257	144.33243	-610.53564	-289.38382	102.38818	-674.07953	-273.18127	111.45657	-552.79681	-221.22284	275.92865	-628.34088	-357.13159	85.256393	-608.35028	-178.77119	57.451305	-614.42957	-105.66287	38.731979	-630.32739	-165.35147	40.501598	-562.33478
162	1.61	-357.60989	144.26453	-610.57318	-289.35974	102.21091	-673.96478	-273.20459	111.42997	-552.78912	-221.21898	275.8978	-628.3338	-357.13776	85.207092	-608.44104	-178.78043	57.418671	-614.43768	-105.66546	38.651791	-630.36023	-165.37277	40.473221	-562.34113
163	1.62	-357.64108	144.27419	-610.56219	-289.39429	102.18536	-673.93512	-273.20966	111.47002	-552.77069	-221.226	275.90179	-628.32288	-357.20093	85.224442	-608.44482	-178.79723	57.418457	-614.46344	-105.68626	38.658527	-630.34619	-165.37103	40.463245	-562.34949
164	1.63	-357.59824	144.30652	-610.50098	-289.36584	102.30607	-673.95343	-273.18561	111.45536	-552.7417	-221.19908	275.94324	-628.25647	-357.17868	85.251808	-608.4588	-178.78687	57.451576	-614.40845	-105.67139	38.697296	-630.34167	-165.33237	40.4576	-562.30273
165	1.64	-357.54068	144.29865	-610.52362	-289.36731	102.27826	-673.94745	-273.17365	111.45337	-552.74561	-221.17038	275.9086	-628.24408	-357.21573	85.284233	-608.52515	-178.76706	57.44072	-614.43323	-105.6442	38.674091	-630.34192	-165.35484	40.462315	-562.31628
166	1.65	-357.59277	144.27979	-610.55438	-289.39343	102.16064	-673.90417	-273.17792	111.44311	-552.75665	-221.1824	275.88245	-628.26276	-357.20599	85.204407	-608.49915	-178.79062	57.405178	-614.45721	-105.6971	38.621399	-630.36731	-165.37497	40.428734	-562.33081
167	1.66	-357.59036	144.31259	-610.49921	-289.37134	102.284	-673.96838	-273.18695	111.45626	-552.7381	-221.1433	275.91272	-628.23047	-357.19754	85.248688	-608.48309	-178.7807	57.43528	-614.42932	-105.66724	38.657372	-630.35382	-165.34891	40.465054	-562.32776
168	1.67	-357.53156	144.3275	-610.47479	-289.35681	102.30997	-673.95117	-273.1575	111.47468	-552.72192	-221.11148	275.93179	-628.1994	-357.15781	85.280525	-608.37762	-178.77692	57.429615	-614.39465	-105.65669	38.691849	-630.31604	-165.34383	40.454163	-562.29944
169	1.68	-357.56201	144.2868	-610.54181	-289.40808	102.20684	-673.91882	-273.15897	111.43726	-552.74158	-221.11411	275.87149	-628.22559	-357.15909	85.231262	-608.49438	-178.77667	57.391819	-614.44342	-105.67791	38.615273	-630.35187	-165.36639	40.423443	-562.3338
170	1.69	-357.57428	144.34677	-610.54364	-289.35745	102.24823	-673.9541	-273.18732	111.46262	-552.7511	-221.10175	275.90881	-628.23383	-357.24277	85.32798	-608.59967	-178.80026	57.427784	-614.43994	-105.68253	38.65778	-630.33344	-165.35262	40.467129	-562.32971
171	1.7	-357.53241	144.32904	-610.4754	-289.34375	102.27621	-673.95648	-273.17978	111.43508	-552.74744	-221.08507	275.90631	-628.19287	-357.20544	85.294136	-608.49298	-178.77521	57.433186	-614.40411	-105.66894	38.695866	-630.32111	-165.36099	40.460972	-562.30194
172	1.71	-357.55841	144.28317	-610.52625	-289.35764	102.23647	-673.94269	-273.14597	111.42428	-552.7746	-221.05861	275.87909	-628.22205	-357.16922	85.237419	-608.50342	-178.76836	57.403008	-614.42749	-105.67664	38.614342	-630.33569	-165.3651	40.433083	-562.32355
173	1.72	-357.57227	144.32834	-610.56055	-289.38184	102.19452	-673.94464	-273.16418	111.44938	-552.77301	-221.07925	275.87378	-628.2417	-357.172	85.275787	-608.49396	-178.78705	57.413845	-614.44171	-105.66609	38.625443	-630.35114	-165.33336	40.430836	-562.32483
174	1.73	-357.55063	144.33778	-610.50262	-289.3439	102.27757	-673.92993	-273.17044	111.44542	-552.74835	-221.07079	275.88922	-628.19934	-357.14835	85.278641	-608.47717	-178.78619	57.429996	-614.40149	-105.68626	38.637589	-630.30493	-165.35069	40.454929	-562.29327
175	1.74	-357.53531	144.30391	-610.50543	-289.37347	102.26135	-673.92969	-273.15176	111.44699	-552.71393	-221.07414	275.89233	-628.18158	-357.13635	85.259567	-608.43005	-178.77179	57.395927	-614.42175	-105.69421	38.61504	-630.31458	-165.32729	40.438545	-562.31256
176	1.75	-357.57025	144.28691	-610.5473	-289.38266	102.22453	-673.92914	-273.17249	111.42923	-552.7403	-221.10257	275.89059	-628.18817	-357.18152	85.274101	-608.53296	-178.79744	57.407108	-614.4259	-105.67866	38.647587	-630.35931	-165.35356	40.426727	-562.32294
177	1.76	-357.56512	144.35101	-610.47375	-289.3396	102.25511	-673.91925	-273.14499	111.427	-552.74396	-221.10011	275.90973	-628.15436	-357.15308	85.251625	-608.51672	-178.77684	57.417984	-614.42615	-105.65706	38.701126	-630.35205	-165.33852	40.436699	-562.3269
178	1.77	-357.53656	144.3149	-610.48511	-289.36536	102.28296	-673.90863	-273.15909	111.42326	-552.70929	-221.10667	275.89993	-628.12476	-357.17606	85.268753	-608.54315	-178.77463	57.413116	-614.41687	-105.5134	38.908142	-630.43628	-165.34134	40.412518	-562.30664
179	1.78	-357.5863	144.31982	-610.48407	-289.37656	102.25385	-673.87494	-273.19238	111.41999	-552.69482	-221.12276	275.91406	-628.10828	-357.18716	85.240135	-608.5343	-178.78313	57.416195	-614.41248	-105.60545	38.797634	-630.38184	-165.36377	40.407375	-562.31067
180	1.79	-357.60828	144.33675	-610.49487	-289.35663	102.25382	-673.87988	-273.18594	111.43191	-552.71497	-221.15021	275.90338	-628.0918	-357.20532	85.313972	-608.59241	-178.79276	57.417366	-614.41504	-105.54668	38.835918	-630.40405	-165.34871	40.442368	-562.32117
181	1.8	-357.57153	144.32718	-610.44525	-289.34604	102.28722	-673.9184	-273.17111	111.41061	-552.71747	-221.13744	275.90128	-628.05774	-357.15869	85.271996	-608.44586	-178.78624	57.411591	-614.40546	-105.50663	38.924656	-630.42023	-165.35663	40.409107	-562.31226
182	1.81	-357.56378	144.2885	-610.46765	-289.3345	102.30468	-673.93268	-273.17688	111.40713	-552.67871	-221.13225	275.88736	-628.05524	-357.16031	85.253204	-608.48297	-178.78093	57.401543	-614.39978	-105.58428	38.829861	-630.39813	-165.33604	40.37146	-562.30127
183	1.82	-357.59229	144.33714	-610.44153	-289.3468	102.31628	-673.8927	-273.20813	111.4128	-552.68268	-221.14883	275.93686	-628.03064	-357.20865	85.304749	-608.52863	-178.79207	57.413792	-614.38855	-105.52068	38.909668	-630.42877	-165.36671	40.420475	-562.30194
184	1.83	-357.60632	144.34236	-610.42218	-289.34564	102.32153	-673.87994	-273.1813	111.40831	-552.67755	-221.11777	275.9184	-628.01288	-357.20642	85.329666	-608.54468	-178.78355	57.412388	-614.3988	-105.50859	38.916775	-630.43225	-165.33034	40.415379	-562.29346
185	1.84	-357.53964	144.29059	-610.48602	-289.34189	102.3027	-673.90027	-273.1539	111.40341	-552.67792	-221.09396	275.8725	-628.00354	-357.11572	85.228073	-608.41321	-178.77487	57.402229	-614.39923	-105.50472	38.885227	-630.4361	-165.3045	40.370792	-562.30792
186	1.85	-357.53976	144.2803	-610.46021	-289.35913	102.34418	-673.89594	-273.16684	111.38857	-552.659	-221.07182	275.89569	-627.99316	-357.13446	85.24054	-608.39801	-178.77879	57.382011	-614.38745	-105.51756	38.883839	-630.44458	-165.36925	40.381504	-562.27618
187	1.86	-357.58835	144.36256	-610.43713	-289.32098	102.33466	-673.87848	-273.1629	111.40471	-552.65973	-221.07915	275.92624	-627.96497	-357.20285	85.330421	-608.57153	-178.7804	57.416809	-614.38733	-105.52763	38.923626	-630.41235	-165.32755	40.405457	-562.28503
